<?xml version="1.0" encoding="utf-8"?>
<!-- Generator: Adobe Illustrator 19.2.1, SVG Export Plug-In . SVG Version: 6.00 Build 0)  -->
<svg version="1.1" id="Layer_1" xmlns="http://www.w3.org/2000/svg" xmlns:xlink="http://www.w3.org/1999/xlink" x="0px" y="0px"
	 width="121.19px" height="34.88px" viewBox="0 0 121.19 34.88" style="fill: white;"
	 xml:space="preserve">
<path d="M18.4,33.85c-1.56,0-3.12-0.03-4.68,0.01c-0.8,0.02-1.23-0.25-1.49-1.04c-2.8-8.67-5.62-17.34-8.44-26.01
	c-0.52-1.6-1.05-3.19-1.57-4.79C1.88,0.93,1.95,0.8,3.04,0.79c2.76-0.02,5.52,0.03,8.28-0.02c0.96-0.02,1.21,0.53,1.43,1.27
	c1.5,5.14,3.02,10.28,4.53,15.42c0.25,0.84,0.49,1.69,0.76,2.53c0.07,0.22,0.22,0.4,0.33,0.6c0.14-0.22,0.33-0.42,0.4-0.65
	c1.03-3.45,2.05-6.89,3.08-10.34c0.76-2.57,1.54-5.13,2.26-7.71c0.22-0.79,0.59-1.12,1.42-1.11c2.4,0.04,4.8,0.01,7.2,0.02
	c0.28,0,0.56,0.04,0.83,0.08c1.22,0.21,1.3,0.34,0.89,1.6c-1.5,4.6-3.01,9.19-4.51,13.79c-1.76,5.4-3.52,10.79-5.23,16.21
	c-0.32,1-0.79,1.45-1.86,1.39C21.37,33.79,19.88,33.85,18.4,33.85z M56.8,17.28c-0.05-2.56-0.78-4.89-2.58-6.78
	C50.21,6.3,43.63,5.3,38.58,8.19c-2.42,1.39-4.29,3.33-5.11,6.09c-0.33,1.12-0.16,1.39,0.96,1.5c2.1,0.2,4.21,0.35,6.32,0.53
	c0.77,0.07,1.33-0.1,1.82-0.82c0.69-1.02,1.8-1.27,2.99-1.02c1.21,0.26,1.76,1.14,2.04,2.27c0.18,0.73-0.09,1.04-0.83,1.07
	c-1.2,0.05-2.39,0.13-3.58,0.24c-2.49,0.23-4.89,0.78-7.11,1.98c-4.76,2.58-5.56,8.3-1.7,12.09c3.37,3.31,9.82,3.34,13.39,0.06
	c0.73-0.67,1.07-0.67,1.6,0.19c0.64,1.05,1.64,1.58,2.94,1.49c0.95-0.07,1.92-0.01,2.88-0.01c1.61-0.01,1.63-0.02,1.63-1.58
	c0-2.48,0-4.96,0-7.43C56.81,22.32,56.85,19.8,56.8,17.28z M47.57,23.1c0.36,0.67,0.38,1.46-0.17,2.24
	c-0.81,1.15-1.67,2.13-3.13,2.39c-1.25,0.23-2.59-0.35-2.94-1.3c-0.43-1.18,0.16-2.65,1.44-3.17c1.02-0.41,2.13-0.59,3.27-0.89
	C46.61,22.62,47.37,22.71,47.57,23.1z M94.58,7.25c-1,0-2-0.01-3,0.01c-0.34,0.01-0.68,0.11-1.03,0.17
	c0.14,0.31,0.24,0.64,0.43,0.92c2.38,3.55,4.77,7.1,7.18,10.62c0.78,1.14,0.76,2.22,0.01,3.33c-0.96,1.42-1.93,2.84-2.9,4.26
	c-1.37,2.01-2.75,4.02-4.11,6.05c-0.16,0.24-0.33,0.64-0.24,0.86c0.08,0.19,0.51,0.33,0.79,0.33c1.95,0.04,3.91-0.03,5.86,0.07
	c1.85,0.09,3.12-0.75,4.12-2.19c0.89-1.28,1.76-2.57,2.66-3.84c0.73-1.04,0.96-1.04,1.71,0.03c0.9,1.28,1.75,2.58,2.67,3.84
	c0.79,1.09,1.7,2.1,3.17,2.1c2.39,0.01,4.79-0.1,7.18-0.1c0.88,0,0.72-0.29,0.38-0.8c-2.27-3.34-4.51-6.7-6.8-10.01
	c-1.32-1.9-1.38-2.48-0.08-4.41c2.32-3.45,4.65-6.89,6.98-10.33c0.36-0.54,0.56-0.92-0.39-0.91c-2.2,0.02-4.4-0.03-6.59,0.03
	c-1.56,0.04-2.82,0.7-3.71,2.07c-0.96,1.47-2.03,2.87-3.02,4.33c-0.49,0.73-0.85,0.67-1.32-0.02c-0.96-1.42-2.02-2.78-2.94-4.23
	c-0.96-1.5-2.32-2.13-4.03-2.16C96.58,7.24,95.58,7.26,94.58,7.25C94.58,7.26,94.58,7.25,94.58,7.25z M73.45,16.13
	c0,4.12-0.03,8.23,0.01,12.35c0.03,2.9,2.16,5.33,4.63,5.35c2.59,0.02,5.18,0.03,7.77,0.02c0.48,0,0.96-0.05,1.43-0.12
	c0.64-0.09,0.97-0.43,0.97-1.13c-0.02-1.96-0.02-3.92,0-5.87c0.01-0.8-0.4-1.05-1.12-1.03c-1.08,0.03-2.16-0.05-3.23,0.06
	c-0.87,0.09-1.18-0.22-1.17-1.04c0.01-2.68,0.02-5.36,0-8.03c-0.01-0.85,0.41-1.12,1.19-1.1c1.04,0.02,2.08-0.03,3.12,0.01
	c0.84,0.03,1.25-0.25,1.23-1.16c-0.04-2.04-0.03-4.08-0.01-6.11c0.01-0.76-0.29-1.1-1.06-1.08c-0.96,0.03-1.92,0.01-2.88,0
	c-1.55-0.01-1.59-0.05-1.59-1.64c0-1.04,0.01-2.08,0-3.12c-0.01-1.52-0.2-1.7-1.76-1.71c-2.04-0.01-4.08-0.01-6.11,0
	c-1.36,0.01-1.41,0.05-1.41,1.44c-0.01,4.36,0,8.71,0,13.07C73.45,15.57,73.45,15.85,73.45,16.13z M60.48,32.52
	c-0.01,0.97,0.3,1.37,1.31,1.34c2.12-0.05,4.23-0.01,6.35-0.02c1.35-0.01,1.43-0.08,1.44-1.43c0.01-3.32,0-6.63,0-9.95
	c0-6.59,0.01-13.18-0.01-19.77c0-1.57-0.36-1.9-1.9-1.91c-1.88-0.01-3.75-0.01-5.63,0c-1.53,0-1.54,0.01-1.54,1.54
	c0,4.99,0,9.99,0,14.98C60.49,22.38,60.51,27.45,60.48,32.52z"/>
</svg>
